<?xml version="1.0" encoding="utf-8" standalone="no"?>
<!DOCTYPE svg PUBLIC "-//W3C//DTD SVG 1.1//EN"
  "http://www.w3.org/Graphics/SVG/1.1/DTD/svg11.dtd">
<svg xmlns:xlink="http://www.w3.org/1999/xlink" width="684pt" height="402.48pt" viewBox="0 0 684 402.48" xmlns="http://www.w3.org/2000/svg" version="1.1">
 <metadata>
  <rdf:RDF xmlns:dc="http://purl.org/dc/elements/1.1/" xmlns:cc="http://creativecommons.org/ns#" xmlns:rdf="http://www.w3.org/1999/02/22-rdf-syntax-ns#">
   <cc:Work>
    <dc:type rdf:resource="http://purl.org/dc/dcmitype/StillImage"/>
    <dc:date>2026-05-26T11:09:03.776333</dc:date>
    <dc:format>image/svg+xml</dc:format>
    <dc:creator>
     <cc:Agent>
      <dc:title>Matplotlib v3.10.0, https://matplotlib.org/</dc:title>
     </cc:Agent>
    </dc:creator>
   </cc:Work>
  </rdf:RDF>
 </metadata>
 <defs>
  <style type="text/css">*{stroke-linejoin: round; stroke-linecap: butt}</style>
 </defs>
 <g id="figure_1">
  <g id="patch_1">
   <path d="M 0 402.48 
L 684 402.48 
L 684 -0 
L 0 -0 
z
" style="fill: #ffffff"/>
  </g>
  <g id="axes_1">
   <g id="patch_2">
    <path d="M 55.4112 150.7896 
L 139.7808 150.7896 
Q 147.816 150.7896 147.816 146.13264 
L 147.816 108.87696 
Q 147.816 104.22 139.7808 104.22 
L 55.4112 104.22 
Q 47.376 104.22 47.376 108.87696 
L 47.376 146.13264 
Q 47.376 150.7896 55.4112 150.7896 
z
" clip-path="url(#p32de3ce649)" style="fill: #ffffff; stroke: #374151; stroke-width: 1.25; stroke-linejoin: miter"/>
   </g>
   <g id="patch_3">
    <path d="M 143.116049 127.5048 
Q 161.206317 127.5048 177.731338 127.5048 
" clip-path="url(#p32de3ce649)" style="fill: none; stroke: #374151; stroke-width: 1.4; stroke-linecap: round"/>
    <path d="M 172.931338 125.1048 
L 177.731338 127.5048 
L 172.931338 129.9048 
z
" clip-path="url(#p32de3ce649)" style="fill: #374151; stroke: #374151; stroke-width: 1.4; stroke-linecap: round"/>
   </g>
   <g id="patch_4">
    <path d="M 182.6352 150.7896 
L 267.0048 150.7896 
Q 275.04 150.7896 275.04 146.13264 
L 275.04 108.87696 
Q 275.04 104.22 267.0048 104.22 
L 182.6352 104.22 
Q 174.6 104.22 174.6 108.87696 
L 174.6 146.13264 
Q 174.6 150.7896 182.6352 150.7896 
z
" clip-path="url(#p32de3ce649)" style="fill: #ffffff; stroke: #374151; stroke-width: 1.25; stroke-linejoin: miter"/>
   </g>
   <g id="patch_5">
    <path d="M 270.343727 127.5048 
Q 291.778837 127.5048 311.6487 127.5048 
" clip-path="url(#p32de3ce649)" style="fill: none; stroke: #374151; stroke-width: 1.4; stroke-linecap: round"/>
    <path d="M 306.8487 125.1048 
L 311.6487 127.5048 
L 306.8487 129.9048 
z
" clip-path="url(#p32de3ce649)" style="fill: #374151; stroke: #374151; stroke-width: 1.4; stroke-linecap: round"/>
   </g>
   <g id="patch_6">
    <path d="M 316.5552 150.7896 
L 400.9248 150.7896 
Q 408.96 150.7896 408.96 146.13264 
L 408.96 108.87696 
Q 408.96 104.22 400.9248 104.22 
L 316.5552 104.22 
Q 308.52 104.22 308.52 108.87696 
L 308.52 146.13264 
Q 308.52 150.7896 316.5552 150.7896 
z
" clip-path="url(#p32de3ce649)" style="fill: #ffffff; stroke: #374151; stroke-width: 1.25; stroke-linejoin: miter"/>
   </g>
   <g id="patch_7">
    <path d="M 404.260049 127.5048 
Q 422.350317 127.5048 438.875338 127.5048 
" clip-path="url(#p32de3ce649)" style="fill: none; stroke: #374151; stroke-width: 1.4; stroke-linecap: round"/>
    <path d="M 434.075338 125.1048 
L 438.875338 127.5048 
L 434.075338 129.9048 
z
" clip-path="url(#p32de3ce649)" style="fill: #374151; stroke: #374151; stroke-width: 1.4; stroke-linecap: round"/>
   </g>
   <g id="patch_8">
    <path d="M 443.7792 150.7896 
L 528.1488 150.7896 
Q 536.184 150.7896 536.184 146.13264 
L 536.184 108.87696 
Q 536.184 104.22 528.1488 104.22 
L 443.7792 104.22 
Q 435.744 104.22 435.744 108.87696 
L 435.744 146.13264 
Q 435.744 150.7896 443.7792 150.7896 
z
" clip-path="url(#p32de3ce649)" style="fill: #ffffff; stroke: #374151; stroke-width: 1.25; stroke-linejoin: miter"/>
   </g>
   <g id="patch_9">
    <path d="M 531.485684 127.5048 
Q 542.878857 127.5048 552.706782 127.5048 
" clip-path="url(#p32de3ce649)" style="fill: none; stroke: #374151; stroke-width: 1.4; stroke-linecap: round"/>
    <path d="M 547.906782 125.1048 
L 552.706782 127.5048 
L 547.906782 129.9048 
z
" clip-path="url(#p32de3ce649)" style="fill: #374151; stroke: #374151; stroke-width: 1.4; stroke-linecap: round"/>
   </g>
   <g id="patch_10">
    <path d="M 557.6112 150.7896 
L 641.9808 150.7896 
Q 650.016 150.7896 650.016 146.13264 
L 650.016 108.87696 
Q 650.016 104.22 641.9808 104.22 
L 557.6112 104.22 
Q 549.576 104.22 549.576 108.87696 
L 549.576 146.13264 
Q 549.576 150.7896 557.6112 150.7896 
z
" clip-path="url(#p32de3ce649)" style="fill: #ffffff; stroke: #374151; stroke-width: 1.25; stroke-linejoin: miter"/>
   </g>
   <g id="patch_11">
    <path d="M 182.6352 236.1672 
L 313.8768 236.1672 
Q 321.912 236.1672 321.912 231.51024 
L 321.912 205.89696 
Q 321.912 201.24 313.8768 201.24 
L 182.6352 201.24 
Q 174.6 201.24 174.6 205.89696 
L 174.6 231.51024 
Q 174.6 236.1672 182.6352 236.1672 
z
" clip-path="url(#p32de3ce649)" style="fill: #f7f8fa; stroke: #374151; stroke-width: 1.25; stroke-linejoin: miter"/>
   </g>
   <g id="patch_12">
    <path d="M 376.8192 236.1672 
L 561.6288 236.1672 
Q 569.664 236.1672 569.664 231.51024 
L 569.664 205.89696 
Q 569.664 201.24 561.6288 201.24 
L 376.8192 201.24 
Q 368.784 201.24 368.784 205.89696 
L 368.784 231.51024 
Q 368.784 236.1672 376.8192 236.1672 
z
" clip-path="url(#p32de3ce649)" style="fill: #f7f8fa; stroke: #374151; stroke-width: 1.25; stroke-linejoin: miter"/>
   </g>
   <g id="patch_13">
    <path d="M 248.256 148.909127 
Q 248.256 176.01486 248.256 201.555345 
" clip-path="url(#p32de3ce649)" style="fill: none; stroke-dasharray: 7,5.6; stroke-dashoffset: 0; stroke: #374151; stroke-width: 1.4; stroke-linecap: round"/>
    <path d="M 250.656 196.755345 
L 248.256 201.555345 
L 245.856 196.755345 
z
" clip-path="url(#p32de3ce649)" style="fill: #374151; stroke-dasharray: 7,5.6; stroke-dashoffset: 0; stroke: #374151; stroke-width: 1.4; stroke-linecap: round"/>
   </g>
   <g id="patch_14">
    <path d="M 495.172635 148.724372 
Q 482.615643 176.015576 470.712908 201.884827 
" clip-path="url(#p32de3ce649)" style="fill: none; stroke-dasharray: 7,5.6; stroke-dashoffset: 0; stroke: #374151; stroke-width: 1.4; stroke-linecap: round"/>
    <path d="M 474.89954 198.527431 
L 470.712908 201.884827 
L 470.538971 196.521083 
z
" clip-path="url(#p32de3ce649)" style="fill: #374151; stroke-dasharray: 7,5.6; stroke-dashoffset: 0; stroke: #374151; stroke-width: 1.4; stroke-linecap: round"/>
   </g>
   <g id="patch_15">
    <path d="M 129.0672 313.7832 
L 554.9328 313.7832 
Q 562.968 313.7832 562.968 309.12624 
L 562.968 279.63216 
Q 562.968 274.9752 554.9328 274.9752 
L 129.0672 274.9752 
Q 121.032 274.9752 121.032 279.63216 
L 121.032 309.12624 
Q 121.032 313.7832 129.0672 313.7832 
z
" clip-path="url(#p32de3ce649)" style="fill: #ffffff; stroke: #374151; stroke-width: 1.25; stroke-linejoin: miter"/>
   </g>
   <g id="text_1">
    <text style="font-weight: 700; font-size: 16px; font-family: 'Microsoft YaHei', 'SimHei', 'Arial Unicode MS', 'DejaVu Sans', sans-serif; text-anchor: start; fill: #111827" x="33.984" y="37.4536" transform="rotate(-0 33.984 37.4536)">功率检测与幅度换算</text>
   </g>
   <g id="text_2">
    <text style="font-size: 9.5px; font-family: 'Microsoft YaHei', 'SimHei', 'Arial Unicode MS', 'DejaVu Sans', sans-serif; text-anchor: start; fill: #4b5563" x="33.984" y="51.661662" transform="rotate(-0 33.984 51.661662)">将 RBW 带宽内的复基带能量换算为射频输入端幅度。</text>
   </g>
   <g id="text_3">
    <text style="font-weight: 700; font-size: 8.8px; font-family: 'Microsoft YaHei', 'SimHei', 'Arial Unicode MS', 'DejaVu Sans', sans-serif; fill: #111827" transform="translate(82.38025 124.54338)">RBW内</text>
    <text style="font-weight: 700; font-size: 8.8px; font-family: 'Microsoft YaHei', 'SimHei', 'Arial Unicode MS', 'DejaVu Sans', sans-serif; fill: #111827" transform="translate(81.639125 135.313095)">I/Q样本</text>
   </g>
   <g id="text_4">
    <text style="font-weight: 700; font-size: 8.8px; font-family: 'Microsoft YaHei', 'SimHei', 'Arial Unicode MS', 'DejaVu Sans', sans-serif; fill: #111827" transform="translate(207.22 124.54338)">均方功率</text>
    <text style="font-weight: 700; font-size: 8.8px; font-family: 'Microsoft YaHei', 'SimHei', 'Arial Unicode MS', 'DejaVu Sans', sans-serif; fill: #111827" transform="translate(190.64575 135.313095)">P=mean(I²+Q²)</text>
   </g>
   <g id="text_5">
    <text style="font-weight: 700; font-size: 8.8px; font-family: 'Microsoft YaHei', 'SimHei', 'Arial Unicode MS', 'DejaVu Sans', sans-serif; fill: #111827" transform="translate(336.74 124.48563)">相对满量程</text>
    <text style="font-weight: 700; font-size: 8.8px; font-family: 'Microsoft YaHei', 'SimHei', 'Arial Unicode MS', 'DejaVu Sans', sans-serif; fill: #111827" transform="translate(342.891063 135.255345)">P_dBFS</text>
   </g>
   <g id="text_6">
    <text style="font-weight: 700; font-size: 8.8px; font-family: 'Microsoft YaHei', 'SimHei', 'Arial Unicode MS', 'DejaVu Sans', sans-serif; fill: #111827" transform="translate(458.60975 124.48563)">ADC输入功率</text>
    <text style="font-weight: 700; font-size: 8.8px; font-family: 'Microsoft YaHei', 'SimHei', 'Arial Unicode MS', 'DejaVu Sans', sans-serif; fill: #111827" transform="translate(471.345688 135.255345)">P_ADC</text>
   </g>
   <g id="text_7">
    <text style="font-weight: 700; font-size: 8.8px; font-family: 'Microsoft YaHei', 'SimHei', 'Arial Unicode MS', 'DejaVu Sans', sans-serif; fill: #111827" transform="translate(573.396 124.48563)">射频输入功率</text>
    <text style="font-weight: 700; font-size: 8.8px; font-family: 'Microsoft YaHei', 'SimHei', 'Arial Unicode MS', 'DejaVu Sans', sans-serif; fill: #111827" transform="translate(589.40375 135.255345)">P_RF</text>
   </g>
   <g id="text_8">
    <text style="font-size: 9.2px; font-family: 'Microsoft YaHei', 'SimHei', 'Arial Unicode MS', 'DejaVu Sans', sans-serif; text-anchor: middle; fill: #111827" x="248.256" y="221.206287" transform="rotate(-0 248.256 221.206287)">P_dBFS = 10log10(P/PFS)</text>
   </g>
   <g id="text_9">
    <text style="font-size: 9.2px; font-family: 'Microsoft YaHei', 'SimHei', 'Arial Unicode MS', 'DejaVu Sans', sans-serif; text-anchor: middle; fill: #111827" x="469.224" y="221.380944" transform="rotate(-0 469.224 221.380944)">P_RF = P_ADC + 前端校正量</text>
   </g>
   <g id="text_10">
    <text style="font-weight: 700; font-size: 9.6px; font-family: 'Microsoft YaHei', 'SimHei', 'Arial Unicode MS', 'DejaVu Sans', sans-serif; text-anchor: middle; fill: #111827" x="342" y="297.02295" transform="rotate(-0 342 297.02295)">前端校正量综合考虑衰减器、低噪声放大器、可变增益放大器、混频链路损耗和频率响应起伏。</text>
   </g>
  </g>
 </g>
 <defs>
  <clipPath id="p32de3ce649">
   <rect x="7.2" y="7.2" width="669.6" height="388.08"/>
  </clipPath>
 </defs>
</svg>
